<svg width="52" height="52" viewBox="0 0 52 52" fill="none" xmlns="http://www.w3.org/2000/svg">
<rect x="0.600098" y="0.5" width="51" height="51" rx="8" fill="white"/>
<mask id="mask0_43_196" style="mask-type:alpha" maskUnits="userSpaceOnUse" x="8" y="8" width="37" height="35">
<rect x="8" y="8" width="36.6667" height="35" fill="#D9D9D9"/>
</mask>
<g mask="url(#mask0_43_196)">
<path d="M25.9235 38.625C22.2229 38.625 19.0549 37.3996 16.4195 34.9488C13.784 32.498 12.4027 29.5023 12.2754 25.9618H14.8471C14.9659 28.8298 16.0884 31.2523 18.2146 33.2292C20.3407 35.206 22.9104 36.1945 25.9235 36.1945C29.0725 36.1945 31.7397 35.1433 33.9253 33.0408C36.1109 30.9384 37.2036 28.3843 37.2036 25.3785C37.2036 22.4213 36.1024 19.9198 33.8998 17.8741C31.6973 15.8284 29.0385 14.8055 25.9235 14.8055C24.1836 14.8055 22.5539 15.1863 21.0346 15.9479C19.5153 16.7095 18.2082 17.7303 17.1133 19.0104H21.1874V21.4409H12.8101V13.4688H15.3564V17.1875C16.672 15.6806 18.2486 14.5017 20.0862 13.651C21.9237 12.8003 23.8695 12.375 25.9235 12.375C27.8333 12.375 29.6263 12.7173 31.3026 13.4019C32.9789 14.0865 34.443 15.0182 35.6949 16.197C36.9469 17.3759 37.9357 18.7572 38.6614 20.3411C39.3871 21.9251 39.7499 23.6285 39.7499 25.4514C39.7499 27.2743 39.3871 28.9858 38.6614 30.5859C37.9357 32.186 36.9469 33.5796 35.6949 34.7665C34.443 35.9534 32.9789 36.8932 31.3026 37.5859C29.6263 38.2786 27.8333 38.625 25.9235 38.625ZM30.6087 31.5035L24.7523 25.9618V18.1354H27.2985V24.9653L32.4166 29.7778L30.6087 31.5035Z" fill="#1C1B1F"/>
</g>
</svg>
