<svg width="52" height="52" viewBox="0 0 52 52" fill="none" xmlns="http://www.w3.org/2000/svg">
<rect x="0.600098" y="0.5" width="51" height="51" rx="8" fill="white"/>
<path d="M20.7222 44L17.5555 38.6111L11.3611 37.3055L12.0278 31.1667L8 26.5L12.0278 21.8611L11.3611 15.7222L17.5555 14.4167L20.7222 9L26.3333 11.5278L31.9445 9L35.1389 14.4167L41.3055 15.7222L40.6389 21.8611L44.6667 26.5L40.6389 31.1667L41.3055 37.3055L35.1389 38.6111L31.9445 44L26.3333 41.4722L20.7222 44ZM21.9445 40.3889L26.3333 38.5278L30.8333 40.3889L33.4722 36.2778L38.25 35.0833L37.7778 30.2222L41.0556 26.5L37.7778 22.6945L38.25 17.8333L33.4722 16.7222L30.75 12.6111L26.3333 14.4722L21.8333 12.6111L19.1944 16.7222L14.4167 17.8333L14.8889 22.6945L11.6111 26.5L14.8889 30.2222L14.4167 35.1667L19.1944 36.2778L21.9445 40.3889ZM24.5555 32.1667L34 22.7778L31.9722 20.8333L24.5555 28.1945L20.7222 24.2778L18.6667 26.3055L24.5555 32.1667Z" fill="#1C1B1F"/>
</svg>
