<svg width="52" height="52" viewBox="0 0 52 52" fill="none" xmlns="http://www.w3.org/2000/svg">
<rect x="0.600098" y="0.5" width="51" height="51" rx="8" fill="white"/>
<mask id="mask0_48_273" style="mask-type:alpha" maskUnits="userSpaceOnUse" x="11" y="11" width="31" height="30">
<rect x="11" y="11" width="30.6557" height="29.2623" fill="#D9D9D9"/>
</mask>
<g mask="url(#mask0_48_273)">
<path d="M23.3475 36.6049C22.2618 36.6049 21.3357 36.2273 20.5693 35.472C19.803 34.7168 19.3665 33.8447 19.2601 32.8557C17.9969 32.7338 16.9432 32.219 16.0987 31.3113C15.2543 30.4036 14.832 29.3097 14.832 28.0295C14.832 27.5892 14.8906 27.1607 15.0077 26.7441C15.1248 26.3276 15.3004 25.9296 15.5346 25.5503C15.3004 25.1845 15.1248 24.7984 15.0077 24.392C14.8906 23.9855 14.832 23.552 14.832 23.0914C14.832 21.8654 15.2684 20.8104 16.1413 19.9264C17.0141 19.0425 18.0644 18.526 19.292 18.377C19.3417 17.3406 19.7604 16.4617 20.548 15.7403C21.3357 15.0189 22.276 14.6582 23.3688 14.6582C23.9649 14.6582 24.5024 14.7632 24.9814 14.9732C25.4604 15.1832 25.9092 15.4812 26.3279 15.8673C26.7395 15.4812 27.183 15.1832 27.6585 14.9732C28.1339 14.7632 28.6697 14.6582 29.2658 14.6582C30.3444 14.6582 31.2722 15.0172 32.0493 15.7352C32.8263 16.4532 33.2468 17.3304 33.3106 18.3668C34.5525 18.4887 35.6151 18.9968 36.4986 19.8909C37.3821 20.785 37.8238 21.8519 37.8238 23.0914C37.8238 23.552 37.7617 23.9889 37.6376 24.4022C37.5134 24.8153 37.3342 25.2048 37.1 25.5706C37.3342 25.9635 37.5134 26.3784 37.6376 26.8153C37.7617 27.2522 37.8238 27.684 37.8238 28.1107C37.8238 29.3977 37.3998 30.4798 36.5518 31.357C35.7038 32.2342 34.6483 32.7338 33.3851 32.8557C33.2787 33.8447 32.8405 34.7168 32.0706 35.472C31.3006 36.2273 30.3799 36.6049 29.3083 36.6049C28.7052 36.6049 28.1641 36.505 27.6851 36.3052C27.2061 36.1054 26.7537 35.8124 26.3279 35.4263C25.8951 35.8124 25.4409 36.1054 24.9654 36.3052C24.49 36.505 23.9507 36.6049 23.3475 36.6049ZM27.3924 18.4176V32.8455C27.3924 33.3265 27.5822 33.7346 27.9619 34.0699C28.3415 34.4052 28.7974 34.5728 29.3296 34.5728C29.8406 34.5728 30.2823 34.3629 30.6549 33.9429C31.0274 33.5229 31.2314 33.0826 31.2669 32.622C30.7915 32.4594 30.3497 32.241 29.9417 31.9666C29.5337 31.6923 29.1806 31.3553 28.8826 30.9557C28.6981 30.7118 28.6289 30.4578 28.675 30.1936C28.7211 29.9295 28.8719 29.7093 29.1274 29.5332C29.3829 29.3571 29.649 29.2911 29.9257 29.3351C30.2025 29.3791 30.4331 29.5231 30.6176 29.7669C30.8802 30.1191 31.2066 30.3884 31.5969 30.5747C31.9872 30.761 32.4165 30.8541 32.8848 30.8541C33.6583 30.8541 34.3201 30.5984 34.87 30.087C35.42 29.5755 35.695 28.9168 35.695 28.1107C35.695 27.9549 35.679 27.7958 35.6471 27.6332C35.6152 27.4706 35.5779 27.3046 35.5353 27.1353C35.1592 27.3792 34.7494 27.5621 34.3059 27.684C33.8624 27.8059 33.4029 27.8669 32.9274 27.8669C32.6223 27.8669 32.3686 27.7703 32.1664 27.5773C31.9641 27.3842 31.863 27.1421 31.863 26.8508C31.863 26.5596 31.9641 26.3174 32.1664 26.1244C32.3686 25.9313 32.6223 25.8348 32.9274 25.8348C33.7009 25.8348 34.3556 25.5655 34.8913 25.027C35.4271 24.4885 35.695 23.8433 35.695 23.0914C35.695 22.3531 35.4129 21.7231 34.8488 21.2016C34.2846 20.68 33.63 20.4023 32.8848 20.3684C32.6649 20.8155 32.3615 21.21 31.9748 21.5521C31.588 21.8942 31.1498 22.1533 30.6602 22.3294C30.3763 22.4378 30.1031 22.431 29.8406 22.3091C29.578 22.1871 29.4006 21.9907 29.3084 21.7198C29.2161 21.4488 29.2285 21.1846 29.3456 20.9273C29.4627 20.6698 29.6632 20.4971 29.947 20.4091C30.3089 20.2939 30.6052 20.0704 30.8358 19.7385C31.0664 19.4065 31.1818 19.0272 31.1818 18.6005C31.1818 18.0654 30.9955 17.6132 30.6229 17.244C30.2504 16.8749 29.8051 16.6903 29.2871 16.6903C28.769 16.6903 28.3237 16.8579 27.9512 17.1932C27.5786 17.5285 27.3924 17.9366 27.3924 18.4176ZM25.2635 32.8455V18.4176C25.2635 17.9366 25.0808 17.5285 24.7153 17.1932C24.3499 16.8579 23.901 16.6903 23.3688 16.6903C22.8508 16.6903 22.4019 16.8749 22.0223 17.244C21.6426 17.6132 21.4528 18.0654 21.4528 18.6005C21.4528 19.0205 21.5628 19.3947 21.7828 19.7232C22.0028 20.0518 22.2937 20.2736 22.6556 20.3887C22.9395 20.4768 23.1453 20.6495 23.273 20.9069C23.4007 21.1643 23.4185 21.4217 23.3262 21.6791C23.2127 21.9501 23.0211 22.1499 22.7514 22.2786C22.4818 22.4073 22.205 22.4174 21.9212 22.3091C21.4315 22.1465 20.9969 21.8942 20.6172 21.5521C20.2376 21.21 19.9378 20.8155 19.7178 20.3684C18.994 20.4158 18.3535 20.6986 17.7965 21.2168C17.2394 21.735 16.9609 22.3599 16.9609 23.0914C16.9609 23.8433 17.2288 24.4885 17.7645 25.027C18.3003 25.5655 18.9549 25.8348 19.7284 25.8348C20.0336 25.8348 20.2872 25.9313 20.4895 26.1244C20.6917 26.3174 20.7928 26.5596 20.7928 26.8508C20.7928 27.1421 20.6917 27.3842 20.4895 27.5773C20.2872 27.7703 20.0336 27.8669 19.7284 27.8669C19.253 27.8669 18.7935 27.8025 18.35 27.6738C17.9065 27.5451 17.4967 27.3656 17.1205 27.1353C17.0638 27.2776 17.023 27.4266 16.9981 27.5824C16.9733 27.7382 16.9609 27.894 16.9609 28.0498C16.9609 28.8558 17.2323 29.5247 17.7752 30.0565C18.318 30.5882 18.9762 30.8541 19.7497 30.8541C20.2039 30.8541 20.6296 30.7576 21.027 30.5645C21.4244 30.3715 21.7544 30.1056 22.017 29.7669C22.2015 29.5366 22.4357 29.3961 22.7195 29.3453C23.0033 29.2945 23.2659 29.3571 23.5072 29.5332C23.7484 29.7093 23.8957 29.9329 23.9489 30.2038C24.0021 30.4747 23.9365 30.7254 23.752 30.9557C23.4539 31.3553 23.1027 31.694 22.6982 31.9717C22.2937 32.2495 21.8537 32.4696 21.3783 32.6322C21.4138 33.0928 21.6196 33.5314 21.9957 33.948C22.3718 34.3646 22.8224 34.5728 23.3475 34.5728C23.8797 34.5728 24.3321 34.4052 24.7047 34.0699C25.0772 33.7346 25.2635 33.3265 25.2635 32.8455Z" fill="#1C1B1F"/>
</g>
</svg>
