<svg width="52" height="52" viewBox="0 0 52 52" fill="none" xmlns="http://www.w3.org/2000/svg">
<rect x="0.600098" y="0.5" width="51" height="51" rx="8" fill="white"/>
<path d="M22.5205 30.1858L31.9727 24.1475L22.5205 18.1093V30.1858ZM20.5929 38.082V35.2951H14.3224C13.6953 35.2951 13.1515 35.0648 12.6909 34.6042C12.2303 34.1436 12 33.5997 12 32.9727V15.3224C12 14.6953 12.2303 14.1515 12.6909 13.6909C13.1515 13.2303 13.6953 13 14.3224 13H37.5465C38.1735 13 38.7174 13.2303 39.178 13.6909C39.6386 14.1515 39.8689 14.6953 39.8689 15.3224V32.9727C39.8689 33.5997 39.6386 34.1436 39.178 34.6042C38.7174 35.0648 38.1735 35.2951 37.5465 35.2951H31.2759V38.082H20.5929ZM14.3224 32.9727H37.5465V15.3224H14.3224V32.9727Z" fill="black"/>
</svg>
