<svg width="18" height="17" viewBox="0 0 18 17" fill="none" xmlns="http://www.w3.org/2000/svg">
<path d="M8.56154 14.0232L4.41154 16.5232C4.22821 16.6399 4.03654 16.6899 3.83654 16.6732C3.63654 16.6566 3.46154 16.5899 3.31154 16.4732C3.16154 16.3566 3.04487 16.2107 2.96154 16.0357C2.87821 15.8607 2.86154 15.6649 2.91154 15.4482L4.01154 10.7232L0.336538 7.54824C0.169872 7.39824 0.0657051 7.22741 0.0240385 7.03574C-0.0176282 6.84408 -0.0051282 6.65658 0.0615385 6.47324C0.128205 6.28991 0.228205 6.13991 0.361538 6.02324C0.494872 5.90658 0.678205 5.83158 0.911539 5.79824L5.76154 5.37324L7.63654 0.923242C7.71987 0.723242 7.84904 0.573242 8.02404 0.473242C8.19904 0.373242 8.37821 0.323242 8.56154 0.323242C8.74487 0.323242 8.92404 0.373242 9.09904 0.473242C9.27404 0.573242 9.40321 0.723242 9.48654 0.923242L11.3615 5.37324L16.2115 5.79824C16.4449 5.83158 16.6282 5.90658 16.7615 6.02324C16.8949 6.13991 16.9949 6.28991 17.0615 6.47324C17.1282 6.65658 17.1407 6.84408 17.099 7.03574C17.0574 7.22741 16.9532 7.39824 16.7865 7.54824L13.1115 10.7232L14.2115 15.4482C14.2615 15.6649 14.2449 15.8607 14.1615 16.0357C14.0782 16.2107 13.9615 16.3566 13.8115 16.4732C13.6615 16.5899 13.4865 16.6566 13.2865 16.6732C13.0865 16.6899 12.8949 16.6399 12.7115 16.5232L8.56154 14.0232Z" fill="#FFDF00"/>
</svg>
