<svg width="18" height="17" viewBox="0 0 18 17" fill="none" xmlns="http://www.w3.org/2000/svg">
<path d="M9.05373 3.87324V11.6732L12.2037 13.5982L11.3787 9.99824L14.1537 7.59824L10.5037 7.27324L9.05373 3.87324ZM9.05373 14.0232L4.90373 16.5232C4.72039 16.6399 4.52873 16.6899 4.32873 16.6732C4.12873 16.6566 3.95373 16.5899 3.80373 16.4732C3.65373 16.3566 3.53706 16.2107 3.45373 16.0357C3.37039 15.8607 3.35373 15.6649 3.40373 15.4482L4.50373 10.7232L0.828726 7.54824C0.662059 7.39824 0.557893 7.22741 0.516226 7.03574C0.474559 6.84408 0.487059 6.65658 0.553726 6.47324C0.620393 6.28991 0.720393 6.13991 0.853726 6.02324C0.987059 5.90658 1.17039 5.83158 1.40373 5.79824L6.25373 5.37324L8.12873 0.923242C8.21206 0.723242 8.34123 0.573242 8.51623 0.473242C8.69123 0.373242 8.87039 0.323242 9.05373 0.323242C9.23706 0.323242 9.41623 0.373242 9.59123 0.473242C9.76623 0.573242 9.89539 0.723242 9.97873 0.923242L11.8537 5.37324L16.7037 5.79824C16.9371 5.83158 17.1204 5.90658 17.2537 6.02324C17.3871 6.13991 17.4871 6.28991 17.5537 6.47324C17.6204 6.65658 17.6329 6.84408 17.5912 7.03574C17.5496 7.22741 17.4454 7.39824 17.2787 7.54824L13.6037 10.7232L14.7037 15.4482C14.7537 15.6649 14.7371 15.8607 14.6537 16.0357C14.5704 16.2107 14.4537 16.3566 14.3037 16.4732C14.1537 16.5899 13.9787 16.6566 13.7787 16.6732C13.5787 16.6899 13.3871 16.6399 13.2037 16.5232L9.05373 14.0232Z" fill="#FFDF00"/>
</svg>
